<?xml version="1.0" encoding="utf-8" standalone="no"?>
<!DOCTYPE svg PUBLIC "-//W3C//DTD SVG 1.1//EN"
  "http://www.w3.org/Graphics/SVG/1.1/DTD/svg11.dtd">
<svg xmlns:xlink="http://www.w3.org/1999/xlink" width="460.8pt" height="345.6pt" viewBox="0 0 460.8 345.6" xmlns="http://www.w3.org/2000/svg" version="1.1">
 <metadata>
  <rdf:RDF xmlns:dc="http://purl.org/dc/elements/1.1/" xmlns:cc="http://creativecommons.org/ns#" xmlns:rdf="http://www.w3.org/1999/02/22-rdf-syntax-ns#">
   <cc:Work>
    <dc:type rdf:resource="http://purl.org/dc/dcmitype/StillImage"/>
    <dc:date>2024-05-19T15:02:06.504517</dc:date>
    <dc:format>image/svg+xml</dc:format>
    <dc:creator>
     <cc:Agent>
      <dc:title>Matplotlib v3.8.4, https://matplotlib.org/</dc:title>
     </cc:Agent>
    </dc:creator>
   </cc:Work>
  </rdf:RDF>
 </metadata>
 <defs>
  <style type="text/css">*{stroke-linejoin: round; stroke-linecap: butt}</style>
 </defs>
 <g id="figure_1">
  <g id="patch_1">
   <path d="M 0 345.6 
L 460.8 345.6 
L 460.8 0 
L 0 0 
z
" style="fill: #ffffff"/>
  </g>
  <g id="axes_1">
   <g id="patch_2">
    <path d="M 54.351774 249.819506 
L 450 249.819506 
L 450 29.77536 
L 54.351774 29.77536 
z
" style="fill: #ffffff"/>
   </g>
   <g id="matplotlib.axis_1">
    <g id="xtick_1">
     <g id="line2d_1">
      <path d="M 72.335784 249.819506 
L 72.335784 29.77536 
" clip-path="url(#p59045383d3)" style="fill: none; stroke-dasharray: 2.96,1.28; stroke-dashoffset: 0; stroke: #b0b0b0; stroke-opacity: 0.7; stroke-width: 0.8"/>
     </g>
     <g id="line2d_2">
      <defs>
       <path id="m783d794201" d="M 0 0 
L 0 3.5 
" style="stroke: #000000; stroke-width: 0.8"/>
      </defs>
      <g>
       <use xlink:href="#m783d794201" x="72.335784" y="249.819506" style="stroke: #000000; stroke-width: 0.8"/>
      </g>
     </g>
     <g id="text_1">
      <!-- Control (no gel) -->
      <g transform="translate(21.046718 311.630898) rotate(-45) scale(0.1 -0.1)">
       <defs>
        <path id="CMR17-43" d="M 3974 4289 
C 3974 4403 3968 4410 3930 4410 
C 3904 4410 3898 4403 3853 4327 
L 3571 3792 
C 3258 4187 2874 4416 2381 4416 
C 1286 4416 294 3456 294 2148 
C 294 826 1286 -128 2387 -128 
C 3366 -128 3974 730 3974 1461 
C 3974 1524 3974 1550 3917 1550 
C 3866 1550 3866 1531 3859 1474 
C 3808 585 3168 38 2477 38 
C 1824 38 781 495 781 2147 
C 781 3805 1843 4250 2464 4250 
C 3187 4250 3712 3628 3834 2745 
C 3846 2668 3846 2655 3904 2655 
C 3974 2655 3974 2668 3974 2783 
L 3974 4289 
z
" transform="scale(0.015625)"/>
        <path id="CMR17-6f" d="M 2758 1356 
C 2758 2176 2163 2816 1466 2816 
C 768 2816 173 2176 173 1356 
C 173 551 768 -64 1466 -64 
C 2163 -64 2758 551 2758 1356 
z
M 1466 51 
C 1165 51 909 230 762 480 
C 602 767 582 1126 582 1408 
C 582 1677 595 2010 762 2298 
C 890 2509 1139 2714 1466 2714 
C 1754 2714 1997 2554 2150 2330 
C 2349 2029 2349 1607 2349 1408 
C 2349 1158 2336 775 2163 467 
C 1984 173 1709 51 1466 51 
z
" transform="scale(0.015625)"/>
        <path id="CMR17-6e" d="M 2656 1933 
C 2656 2259 2592 2790 1837 2790 
C 1331 2790 1069 2400 973 2144 
L 966 2144 
L 966 2790 
L 211 2720 
L 211 2554 
C 589 2554 646 2515 646 2208 
L 646 428 
C 646 184 621 153 211 153 
L 211 -13 
C 365 0 646 0 813 0 
C 979 0 1267 0 1421 -13 
L 1421 153 
C 1011 153 986 178 986 428 
L 986 1658 
C 986 2247 1344 2688 1792 2688 
C 2266 2688 2317 2266 2317 1958 
L 2317 428 
C 2317 184 2291 153 1882 153 
L 1882 -13 
C 2035 0 2317 0 2483 0 
C 2650 0 2938 0 3091 -13 
L 3091 153 
C 2682 153 2656 178 2656 428 
L 2656 1933 
z
" transform="scale(0.015625)"/>
        <path id="CMR17-74" d="M 966 2560 
L 1862 2560 
L 1862 2725 
L 966 2725 
L 966 3904 
L 851 3904 
C 838 3245 614 2668 70 2668 
L 70 2560 
L 627 2560 
L 627 771 
C 627 650 627 -64 1370 -64 
C 1747 -64 1965 306 1965 777 
L 1965 1140 
L 1850 1140 
L 1850 783 
C 1850 344 1677 51 1408 51 
C 1222 51 966 178 966 758 
L 966 2560 
z
" transform="scale(0.015625)"/>
        <path id="CMR17-72" d="M 960 1497 
C 960 2112 1222 2688 1702 2688 
C 1747 2688 1792 2682 1837 2662 
C 1837 2662 1696 2617 1696 2452 
C 1696 2298 1818 2234 1914 2234 
C 1990 2234 2131 2279 2131 2458 
C 2131 2663 1926 2790 1709 2790 
C 1222 2790 1011 2317 947 2093 
L 941 2093 
L 941 2790 
L 198 2720 
L 198 2554 
C 576 2554 634 2515 634 2208 
L 634 428 
C 634 184 608 153 198 153 
L 198 -13 
C 352 0 646 0 813 0 
C 998 0 1325 0 1498 -13 
L 1498 153 
C 1037 153 960 153 960 440 
L 960 1497 
z
" transform="scale(0.015625)"/>
        <path id="CMR17-6c" d="M 979 4396 
L 218 4326 
L 218 4160 
C 595 4160 653 4122 653 3817 
L 653 426 
C 653 184 627 153 218 153 
L 218 -13 
C 371 0 653 0 813 0 
C 979 0 1261 0 1414 -13 
L 1414 153 
C 1005 153 979 178 979 426 
L 979 4396 
z
" transform="scale(0.015625)"/>
        <path id="CMR17-28" d="M 1958 -1561 
C 1958 -1555 1958 -1542 1939 -1523 
C 1645 -1224 858 -407 858 1581 
C 858 3569 1632 4379 1946 4697 
C 1946 4704 1958 4717 1958 4736 
C 1958 4755 1939 4768 1914 4768 
C 1843 4768 1299 4296 986 3594 
C 666 2887 576 2199 576 1588 
C 576 1128 621 351 1005 -471 
C 1312 -1135 1837 -1600 1914 -1600 
C 1946 -1600 1958 -1587 1958 -1561 
z
" transform="scale(0.015625)"/>
        <path id="CMR17-67" d="M 710 1164 
C 832 1068 1043 960 1299 960 
C 1805 960 2240 1357 2240 1888 
C 2240 2054 2189 2310 1997 2509 
C 2176 2692 2438 2752 2586 2752 
C 2611 2752 2650 2752 2682 2734 
C 2656 2728 2598 2703 2598 2605 
C 2598 2527 2656 2471 2739 2471 
C 2835 2471 2886 2533 2886 2614 
C 2886 2731 2790 2854 2586 2854 
C 2330 2854 2106 2738 1926 2580 
C 1734 2753 1504 2816 1299 2816 
C 794 2816 358 2419 358 1888 
C 358 1522 570 1292 634 1228 
C 442 1004 442 743 442 711 
C 442 545 506 302 723 168 
C 390 85 128 -169 128 -486 
C 128 -943 736 -1280 1466 -1280 
C 2170 -1280 2803 -956 2803 -479 
C 2803 384 1856 384 1363 384 
C 1216 384 954 384 922 391 
C 723 423 589 602 589 826 
C 589 883 589 1024 710 1164 
z
M 1299 1068 
C 736 1068 736 1760 736 1889 
C 736 2016 736 2708 1299 2708 
C 1862 2708 1862 2016 1862 1889 
C 1862 1760 1862 1068 1299 1068 
z
M 1466 -1171 
C 826 -1171 384 -835 384 -486 
C 384 -289 493 -105 634 -4 
C 794 104 858 104 1293 104 
C 1818 104 2547 104 2547 -486 
C 2547 -835 2106 -1171 1466 -1171 
z
" transform="scale(0.015625)"/>
        <path id="CMR17-65" d="M 2438 1472 
C 2464 1498 2464 1511 2464 1576 
C 2464 2238 2118 2816 1389 2816 
C 710 2816 173 2169 173 1383 
C 173 551 781 -64 1459 -64 
C 2176 -64 2458 607 2458 740 
C 2458 784 2419 784 2406 784 
C 2362 784 2355 771 2330 696 
C 2189 265 1837 51 1504 51 
C 1229 51 954 203 781 480 
C 582 803 582 1176 582 1472 
L 2438 1472 
z
M 589 1568 
C 634 2505 1126 2714 1382 2714 
C 1818 2714 2112 2297 2118 1568 
L 589 1568 
z
" transform="scale(0.015625)"/>
        <path id="CMR17-29" d="M 1683 1581 
C 1683 2040 1638 2817 1254 3639 
C 947 4303 422 4768 346 4768 
C 326 4768 301 4761 301 4729 
C 301 4717 307 4710 314 4697 
C 621 4378 1402 3568 1402 1584 
C 1402 -407 627 -1217 314 -1537 
C 307 -1549 301 -1556 301 -1568 
C 301 -1600 326 -1600 346 -1600 
C 416 -1600 960 -1128 1274 -426 
C 1594 281 1683 969 1683 1581 
z
" transform="scale(0.015625)"/>
       </defs>
       <use xlink:href="#CMR17-43" transform="scale(0.996264)"/>
       <use xlink:href="#CMR17-6f" transform="translate(66.509881 0) scale(0.996264)"/>
       <use xlink:href="#CMR17-6e" transform="translate(112.200358 0) scale(0.996264)"/>
       <use xlink:href="#CMR17-74" transform="translate(160.493274 0) scale(0.996264)"/>
       <use xlink:href="#CMR17-72" transform="translate(195.774041 0) scale(0.996264)"/>
       <use xlink:href="#CMR17-6f" transform="translate(231.054809 0) scale(0.996264)"/>
       <use xlink:href="#CMR17-6c" transform="translate(276.745286 0) scale(0.996264)"/>
       <use xlink:href="#CMR17-28" transform="translate(331.692311 0) scale(0.996264)"/>
       <use xlink:href="#CMR17-6e" transform="translate(366.973079 0) scale(0.996264)"/>
       <use xlink:href="#CMR17-6f" transform="translate(417.868449 0) scale(0.996264)"/>
       <use xlink:href="#CMR17-67" transform="translate(493.634892 0) scale(0.996264)"/>
       <use xlink:href="#CMR17-65" transform="translate(539.325369 0) scale(0.996264)"/>
       <use xlink:href="#CMR17-6c" transform="translate(579.81103 0) scale(0.996264)"/>
       <use xlink:href="#CMR17-29" transform="translate(604.682088 0) scale(0.996264)"/>
      </g>
     </g>
    </g>
    <g id="xtick_2">
     <g id="line2d_3">
      <path d="M 162.255836 249.819506 
L 162.255836 29.77536 
" clip-path="url(#p59045383d3)" style="fill: none; stroke-dasharray: 2.96,1.28; stroke-dashoffset: 0; stroke: #b0b0b0; stroke-opacity: 0.7; stroke-width: 0.8"/>
     </g>
     <g id="line2d_4">
      <g>
       <use xlink:href="#m783d794201" x="162.255836" y="249.819506" style="stroke: #000000; stroke-width: 0.8"/>
      </g>
     </g>
     <g id="text_2">
      <!-- PVA + CA -->
      <g transform="translate(125.760589 296.837078) rotate(-45) scale(0.1 -0.1)">
       <defs>
        <path id="CMR17-50" d="M 1267 2042 
L 2291 2042 
C 3117 2042 3718 2578 3718 3184 
C 3718 3791 3130 4352 2291 4352 
L 333 4352 
L 333 4186 
C 774 4186 845 4186 845 3899 
L 845 446 
C 845 160 774 160 333 160 
L 333 0 
C 518 0 858 0 1056 0 
C 1254 0 1594 0 1779 0 
L 1779 160 
C 1338 160 1267 160 1267 446 
L 1267 2042 
z
M 1254 2176 
L 1254 3938 
C 1254 4155 1267 4186 1523 4186 
L 2170 4186 
C 2995 4186 3232 3714 3232 3184 
C 3232 2604 2950 2176 2170 2176 
L 1254 2176 
z
" transform="scale(0.015625)"/>
        <path id="CMR17-56" d="M 3776 3745 
C 3834 3886 3936 4160 4365 4160 
L 4365 4332 
C 4218 4319 4051 4319 3891 4319 
C 3738 4319 3475 4319 3328 4332 
L 3328 4160 
C 3648 4160 3661 3936 3661 3898 
C 3661 3827 3642 3783 3622 3732 
L 2362 446 
L 1043 3886 
C 1024 3931 1011 3963 1011 3994 
C 1011 4160 1267 4160 1402 4160 
L 1402 4319 
C 1197 4319 896 4319 685 4319 
C 518 4319 218 4319 64 4332 
L 64 4160 
C 435 4160 506 4135 582 3931 
L 2106 -26 
C 2138 -115 2144 -128 2214 -128 
C 2285 -128 2291 -115 2323 -26 
L 3776 3745 
z
" transform="scale(0.015625)"/>
        <path id="CMR17-41" d="M 2323 4378 
C 2291 4461 2278 4480 2214 4480 
C 2150 4480 2138 4461 2106 4378 
L 749 566 
C 627 223 371 153 147 153 
L 147 -13 
C 262 0 518 0 640 0 
C 800 0 1056 0 1210 -13 
L 1210 153 
C 909 153 864 361 864 439 
C 864 497 877 530 890 569 
L 1229 1536 
L 2906 1536 
L 3290 442 
C 3322 365 3322 352 3322 327 
C 3322 153 3046 153 2925 153 
L 2925 0 
C 3110 0 3443 0 3642 0 
C 3808 0 4128 0 4282 -13 
L 4282 153 
C 3942 153 3827 153 3744 387 
L 2323 4378 
z
M 2067 3893 
L 2848 1702 
L 1286 1702 
L 2067 3893 
z
" transform="scale(0.015625)"/>
        <path id="CMR17-2b" d="M 2413 1472 
L 4109 1472 
C 4198 1472 4307 1472 4307 1580 
C 4307 1695 4205 1695 4109 1695 
L 2413 1695 
L 2413 3386 
C 2413 3475 2413 3584 2304 3584 
C 2189 3584 2189 3482 2189 3386 
L 2189 1695 
L 493 1695 
C 403 1695 294 1695 294 1587 
C 294 1472 397 1472 493 1472 
L 2189 1472 
L 2189 -218 
C 2189 -307 2189 -416 2298 -416 
C 2413 -416 2413 -314 2413 -218 
L 2413 1472 
z
" transform="scale(0.015625)"/>
       </defs>
       <use xlink:href="#CMR17-50" transform="scale(0.996264)"/>
       <use xlink:href="#CMR17-56" transform="translate(62.586301 0) scale(0.996264)"/>
       <use xlink:href="#CMR17-41" transform="translate(121.249021 0) scale(0.996264)"/>
       <use xlink:href="#CMR17-2b" transform="translate(220.397417 0) scale(0.996264)"/>
       <use xlink:href="#CMR17-43" transform="translate(322.188172 0) scale(0.996264)"/>
       <use xlink:href="#CMR17-41" transform="translate(388.698052 0) scale(0.996264)"/>
      </g>
     </g>
    </g>
    <g id="xtick_3">
     <g id="line2d_5">
      <path d="M 252.175887 249.819506 
L 252.175887 29.77536 
" clip-path="url(#p59045383d3)" style="fill: none; stroke-dasharray: 2.96,1.28; stroke-dashoffset: 0; stroke: #b0b0b0; stroke-opacity: 0.7; stroke-width: 0.8"/>
     </g>
     <g id="line2d_6">
      <g>
       <use xlink:href="#m783d794201" x="252.175887" y="249.819506" style="stroke: #000000; stroke-width: 0.8"/>
      </g>
     </g>
     <g id="text_3">
      <!-- PVA/B-CD -->
      <g transform="translate(214.506518 298.011201) rotate(-45) scale(0.1 -0.1)">
       <defs>
        <path id="CMR17-2f" d="M 2605 4545 
C 2637 4627 2637 4640 2637 4653 
C 2637 4729 2579 4768 2528 4768 
C 2451 4768 2426 4717 2400 4640 
L 326 -1377 
C 294 -1460 294 -1473 294 -1486 
C 294 -1562 352 -1600 403 -1600 
C 480 -1600 506 -1549 531 -1473 
L 2605 4545 
z
" transform="scale(0.015625)"/>
        <path id="CMR17-42" d="M 333 4352 
L 333 4186 
C 774 4186 845 4186 845 3900 
L 845 452 
C 845 166 774 166 333 166 
L 333 0 
L 2534 0 
C 3354 0 3885 583 3885 1164 
C 3885 1741 3360 2233 2675 2233 
C 3290 2356 3718 2771 3718 3264 
C 3718 3802 3194 4352 2368 4352 
L 333 4352 
z
M 1248 2304 
L 1248 3937 
C 1248 4155 1261 4186 1517 4186 
L 2336 4186 
C 2970 4186 3251 3674 3251 3277 
C 3251 2791 2861 2304 2170 2304 
L 1248 2304 
z
M 1517 166 
C 1261 166 1248 197 1248 413 
L 1248 2202 
L 2432 2202 
C 3091 2202 3411 1625 3411 1162 
C 3411 699 3046 166 2349 166 
L 1517 166 
z
" transform="scale(0.015625)"/>
        <path id="CMR17-2d" d="M 1632 1216 
L 1632 1496 
L 26 1496 
L 26 1216 
L 1632 1216 
z
" transform="scale(0.015625)"/>
        <path id="CMR17-44" d="M 333 4352 
L 333 4186 
C 774 4186 845 4186 845 3900 
L 845 452 
C 845 166 774 166 333 166 
L 333 0 
L 2368 0 
C 3398 0 4224 943 4224 2141 
C 4224 3346 3411 4352 2368 4352 
L 333 4352 
z
M 1523 166 
C 1267 166 1254 197 1254 414 
L 1254 3938 
C 1254 4155 1267 4186 1523 4186 
L 2240 4186 
C 2771 4186 3750 3874 3750 2141 
C 3750 1242 3488 879 3366 707 
C 3213 510 2848 166 2240 166 
L 1523 166 
z
" transform="scale(0.015625)"/>
       </defs>
       <use xlink:href="#CMR17-50" transform="scale(0.996264)"/>
       <use xlink:href="#CMR17-56" transform="translate(62.586301 0) scale(0.996264)"/>
       <use xlink:href="#CMR17-41" transform="translate(121.249021 0) scale(0.996264)"/>
       <use xlink:href="#CMR17-2f" transform="translate(190.321451 0) scale(0.996264)"/>
       <use xlink:href="#CMR17-42" transform="translate(236.011928 0) scale(0.996264)"/>
       <use xlink:href="#CMR17-2d" transform="translate(301.200682 0) scale(0.996264)"/>
       <use xlink:href="#CMR17-43" transform="translate(331.276649 0) scale(0.996264)"/>
       <use xlink:href="#CMR17-44" transform="translate(397.786529 0) scale(0.996264)"/>
      </g>
     </g>
    </g>
    <g id="xtick_4">
     <g id="line2d_7">
      <path d="M 342.095938 249.819506 
L 342.095938 29.77536 
" clip-path="url(#p59045383d3)" style="fill: none; stroke-dasharray: 2.96,1.28; stroke-dashoffset: 0; stroke: #b0b0b0; stroke-opacity: 0.7; stroke-width: 0.8"/>
     </g>
     <g id="line2d_8">
      <g>
       <use xlink:href="#m783d794201" x="342.095938" y="249.819506" style="stroke: #000000; stroke-width: 0.8"/>
      </g>
     </g>
     <g id="text_4">
      <!-- PVA/B-CD(4:1) + CA -->
      <g transform="translate(269.398932 333.038837) rotate(-45) scale(0.1 -0.1)">
       <defs>
        <path id="CMR17-34" d="M 2150 4122 
C 2150 4256 2144 4256 2029 4256 
L 128 1254 
L 128 1088 
L 1779 1088 
L 1779 457 
C 1779 224 1766 160 1318 160 
L 1197 160 
L 1197 0 
C 1402 0 1747 0 1965 0 
C 2182 0 2528 0 2733 0 
L 2733 160 
L 2611 160 
C 2163 160 2150 224 2150 457 
L 2150 1088 
L 2803 1088 
L 2803 1254 
L 2150 1254 
L 2150 4122 
z
M 1798 3703 
L 1798 1254 
L 256 1254 
L 1798 3703 
z
" transform="scale(0.015625)"/>
        <path id="CMR17-3a" d="M 1062 2491 
C 1062 2650 934 2752 800 2752 
C 672 2752 538 2650 538 2491 
C 538 2332 666 2230 800 2230 
C 928 2230 1062 2332 1062 2491 
z
M 1062 261 
C 1062 420 934 522 800 522 
C 672 522 538 420 538 261 
C 538 102 666 0 800 0 
C 928 0 1062 102 1062 261 
z
" transform="scale(0.015625)"/>
        <path id="CMR17-31" d="M 1702 4058 
C 1702 4192 1696 4192 1606 4192 
C 1357 3916 979 3827 621 3827 
C 602 3827 570 3827 563 3808 
C 557 3795 557 3782 557 3648 
C 755 3648 1088 3686 1344 3839 
L 1344 461 
C 1344 236 1331 160 781 160 
L 589 160 
L 589 0 
C 896 0 1216 0 1523 0 
C 1830 0 2150 0 2458 0 
L 2458 160 
L 2266 160 
C 1715 160 1702 230 1702 458 
L 1702 4058 
z
" transform="scale(0.015625)"/>
       </defs>
       <use xlink:href="#CMR17-50" transform="scale(0.996264)"/>
       <use xlink:href="#CMR17-56" transform="translate(62.586301 0) scale(0.996264)"/>
       <use xlink:href="#CMR17-41" transform="translate(121.249021 0) scale(0.996264)"/>
       <use xlink:href="#CMR17-2f" transform="translate(190.321451 0) scale(0.996264)"/>
       <use xlink:href="#CMR17-42" transform="translate(236.011928 0) scale(0.996264)"/>
       <use xlink:href="#CMR17-2d" transform="translate(301.200682 0) scale(0.996264)"/>
       <use xlink:href="#CMR17-43" transform="translate(331.276649 0) scale(0.996264)"/>
       <use xlink:href="#CMR17-44" transform="translate(397.786529 0) scale(0.996264)"/>
       <use xlink:href="#CMR17-28" transform="translate(468.180085 0) scale(0.996264)"/>
       <use xlink:href="#CMR17-34" transform="translate(503.460853 0) scale(0.996264)"/>
       <use xlink:href="#CMR17-3a" transform="translate(549.15133 0) scale(0.996264)"/>
       <use xlink:href="#CMR17-31" transform="translate(574.022389 0) scale(0.996264)"/>
       <use xlink:href="#CMR17-29" transform="translate(619.712866 0) scale(0.996264)"/>
       <use xlink:href="#CMR17-2b" transform="translate(685.0696 0) scale(0.996264)"/>
       <use xlink:href="#CMR17-43" transform="translate(786.860355 0) scale(0.996264)"/>
       <use xlink:href="#CMR17-41" transform="translate(853.370235 0) scale(0.996264)"/>
      </g>
     </g>
    </g>
    <g id="xtick_5">
     <g id="line2d_9">
      <path d="M 432.01599 249.819506 
L 432.01599 29.77536 
" clip-path="url(#p59045383d3)" style="fill: none; stroke-dasharray: 2.96,1.28; stroke-dashoffset: 0; stroke: #b0b0b0; stroke-opacity: 0.7; stroke-width: 0.8"/>
     </g>
     <g id="line2d_10">
      <g>
       <use xlink:href="#m783d794201" x="432.01599" y="249.819506" style="stroke: #000000; stroke-width: 0.8"/>
      </g>
     </g>
     <g id="text_5">
      <!-- PVA/B-CD(2:1) + CA -->
      <g transform="translate(359.318984 333.038837) rotate(-45) scale(0.1 -0.1)">
       <defs>
        <path id="CMR17-32" d="M 2669 989 
L 2554 989 
C 2490 536 2438 459 2413 420 
C 2381 369 1920 369 1830 369 
L 602 369 
C 832 619 1280 1072 1824 1597 
C 2214 1967 2669 2402 2669 3035 
C 2669 3790 2067 4224 1395 4224 
C 691 4224 262 3604 262 3030 
C 262 2780 448 2748 525 2748 
C 589 2748 781 2787 781 3010 
C 781 3207 614 3264 525 3264 
C 486 3264 448 3258 422 3245 
C 544 3790 915 4058 1306 4058 
C 1862 4058 2227 3617 2227 3035 
C 2227 2479 1901 2000 1536 1584 
L 262 146 
L 262 0 
L 2515 0 
L 2669 989 
z
" transform="scale(0.015625)"/>
       </defs>
       <use xlink:href="#CMR17-50" transform="scale(0.996264)"/>
       <use xlink:href="#CMR17-56" transform="translate(62.586301 0) scale(0.996264)"/>
       <use xlink:href="#CMR17-41" transform="translate(121.249021 0) scale(0.996264)"/>
       <use xlink:href="#CMR17-2f" transform="translate(190.321451 0) scale(0.996264)"/>
       <use xlink:href="#CMR17-42" transform="translate(236.011928 0) scale(0.996264)"/>
       <use xlink:href="#CMR17-2d" transform="translate(301.200682 0) scale(0.996264)"/>
       <use xlink:href="#CMR17-43" transform="translate(331.276649 0) scale(0.996264)"/>
       <use xlink:href="#CMR17-44" transform="translate(397.786529 0) scale(0.996264)"/>
       <use xlink:href="#CMR17-28" transform="translate(468.180085 0) scale(0.996264)"/>
       <use xlink:href="#CMR17-32" transform="translate(503.460853 0) scale(0.996264)"/>
       <use xlink:href="#CMR17-3a" transform="translate(549.15133 0) scale(0.996264)"/>
       <use xlink:href="#CMR17-31" transform="translate(574.022389 0) scale(0.996264)"/>
       <use xlink:href="#CMR17-29" transform="translate(619.712866 0) scale(0.996264)"/>
       <use xlink:href="#CMR17-2b" transform="translate(685.0696 0) scale(0.996264)"/>
       <use xlink:href="#CMR17-43" transform="translate(786.860355 0) scale(0.996264)"/>
       <use xlink:href="#CMR17-41" transform="translate(853.370235 0) scale(0.996264)"/>
      </g>
     </g>
    </g>
   </g>
   <g id="matplotlib.axis_2">
    <g id="ytick_1">
     <g id="line2d_11">
      <path d="M 54.351774 229.559031 
L 450 229.559031 
" clip-path="url(#p59045383d3)" style="fill: none; stroke-dasharray: 2.96,1.28; stroke-dashoffset: 0; stroke: #b0b0b0; stroke-opacity: 0.7; stroke-width: 0.8"/>
     </g>
     <g id="line2d_12">
      <defs>
       <path id="m9199af1cde" d="M 0 0 
L -3.5 0 
" style="stroke: #000000; stroke-width: 0.8"/>
      </defs>
      <g>
       <use xlink:href="#m9199af1cde" x="54.351774" y="229.559031" style="stroke: #000000; stroke-width: 0.8"/>
      </g>
     </g>
     <g id="text_6">
      <!-- $\mathdefault{3.90}$ -->
      <g transform="translate(29.64036 233.01828) scale(0.1 -0.1)">
       <defs>
        <path id="CMR17-33" d="M 1414 2157 
C 1984 2157 2234 1662 2234 1090 
C 2234 320 1824 25 1453 25 
C 1114 25 563 194 390 693 
C 422 680 454 680 486 680 
C 640 680 755 782 755 948 
C 755 1133 614 1216 486 1216 
C 378 1216 211 1165 211 926 
C 211 335 787 -128 1466 -128 
C 2176 -128 2720 430 2720 1085 
C 2720 1707 2208 2157 1600 2227 
C 2086 2328 2554 2756 2554 3329 
C 2554 3820 2048 4179 1472 4179 
C 890 4179 378 3829 378 3329 
C 378 3110 544 3072 627 3072 
C 762 3072 877 3155 877 3321 
C 877 3486 762 3569 627 3569 
C 602 3569 570 3569 544 3557 
C 730 3959 1235 4032 1459 4032 
C 1683 4032 2106 3925 2106 3320 
C 2106 3143 2080 2828 1862 2550 
C 1670 2304 1453 2304 1242 2284 
C 1210 2284 1062 2269 1037 2269 
C 992 2263 966 2257 966 2208 
C 966 2163 973 2157 1101 2157 
L 1414 2157 
z
" transform="scale(0.015625)"/>
        <path id="CMMI12-3a" d="M 1178 307 
C 1178 492 1024 619 870 619 
C 685 619 557 466 557 313 
C 557 128 710 0 864 0 
C 1050 0 1178 153 1178 307 
z
" transform="scale(0.015625)"/>
        <path id="CMR17-39" d="M 2253 1864 
C 2253 464 1670 31 1190 31 
C 1043 31 685 31 538 294 
C 704 268 826 357 826 518 
C 826 692 685 749 595 749 
C 538 749 365 723 365 506 
C 365 71 742 -128 1203 -128 
C 1939 -128 2688 674 2688 2073 
C 2688 3817 1971 4179 1485 4179 
C 851 4179 243 3628 243 2778 
C 243 1991 762 1408 1414 1408 
C 1952 1408 2189 1903 2253 2112 
L 2253 1864 
z
M 1427 1510 
C 1254 1510 1011 1542 813 1922 
C 678 2169 678 2461 678 2771 
C 678 3146 678 3405 858 3684 
C 947 3817 1114 4032 1485 4032 
C 2240 4032 2240 2885 2240 2632 
C 2240 2182 2035 1510 1427 1510 
z
" transform="scale(0.015625)"/>
        <path id="CMR17-30" d="M 2688 2025 
C 2688 2416 2682 3080 2413 3591 
C 2176 4039 1798 4198 1466 4198 
C 1158 4198 768 4058 525 3597 
C 269 3118 243 2524 243 2025 
C 243 1661 250 1106 448 619 
C 723 -39 1216 -128 1466 -128 
C 1760 -128 2208 -7 2470 600 
C 2662 1042 2688 1559 2688 2025 
z
M 1466 -26 
C 1056 -26 813 325 723 812 
C 653 1188 653 1738 653 2096 
C 653 2588 653 2997 736 3387 
C 858 3929 1216 4096 1466 4096 
C 1728 4096 2067 3923 2189 3400 
C 2272 3036 2278 2607 2278 2096 
C 2278 1680 2278 1169 2202 792 
C 2067 95 1690 -26 1466 -26 
z
" transform="scale(0.015625)"/>
       </defs>
       <use xlink:href="#CMR17-33" transform="scale(0.996264)"/>
       <use xlink:href="#CMMI12-3a" transform="translate(45.690477 0) scale(0.996264)"/>
       <use xlink:href="#CMR17-39" transform="translate(72.787654 0) scale(0.996264)"/>
       <use xlink:href="#CMR17-30" transform="translate(118.478131 0) scale(0.996264)"/>
      </g>
     </g>
    </g>
    <g id="ytick_2">
     <g id="line2d_13">
      <path d="M 54.351774 203.91286 
L 450 203.91286 
" clip-path="url(#p59045383d3)" style="fill: none; stroke-dasharray: 2.96,1.28; stroke-dashoffset: 0; stroke: #b0b0b0; stroke-opacity: 0.7; stroke-width: 0.8"/>
     </g>
     <g id="line2d_14">
      <g>
       <use xlink:href="#m9199af1cde" x="54.351774" y="203.91286" style="stroke: #000000; stroke-width: 0.8"/>
      </g>
     </g>
     <g id="text_7">
      <!-- $\mathdefault{3.95}$ -->
      <g transform="translate(29.64036 207.37211) scale(0.1 -0.1)">
       <defs>
        <path id="CMR17-35" d="M 730 3692 
C 794 3666 1056 3584 1325 3584 
C 1920 3584 2246 3911 2432 4100 
C 2432 4157 2432 4192 2394 4192 
C 2387 4192 2374 4192 2323 4163 
C 2099 4058 1837 3973 1517 3973 
C 1325 3973 1037 3999 723 4139 
C 653 4171 640 4171 634 4171 
C 602 4171 595 4164 595 4037 
L 595 2203 
C 595 2089 595 2057 659 2057 
C 691 2057 704 2070 736 2114 
C 941 2401 1222 2522 1542 2522 
C 1766 2522 2246 2382 2246 1289 
C 2246 1085 2246 715 2054 421 
C 1894 159 1645 25 1370 25 
C 947 25 518 320 403 814 
C 429 807 480 795 506 795 
C 589 795 749 840 749 1038 
C 749 1210 627 1280 506 1280 
C 358 1280 262 1190 262 1011 
C 262 454 704 -128 1382 -128 
C 2042 -128 2669 440 2669 1264 
C 2669 2030 2170 2624 1549 2624 
C 1222 2624 947 2503 730 2274 
L 730 3692 
z
" transform="scale(0.015625)"/>
       </defs>
       <use xlink:href="#CMR17-33" transform="scale(0.996264)"/>
       <use xlink:href="#CMMI12-3a" transform="translate(45.690477 0) scale(0.996264)"/>
       <use xlink:href="#CMR17-39" transform="translate(72.787654 0) scale(0.996264)"/>
       <use xlink:href="#CMR17-35" transform="translate(118.478131 0) scale(0.996264)"/>
      </g>
     </g>
    </g>
    <g id="ytick_3">
     <g id="line2d_15">
      <path d="M 54.351774 178.266689 
L 450 178.266689 
" clip-path="url(#p59045383d3)" style="fill: none; stroke-dasharray: 2.96,1.28; stroke-dashoffset: 0; stroke: #b0b0b0; stroke-opacity: 0.7; stroke-width: 0.8"/>
     </g>
     <g id="line2d_16">
      <g>
       <use xlink:href="#m9199af1cde" x="54.351774" y="178.266689" style="stroke: #000000; stroke-width: 0.8"/>
      </g>
     </g>
     <g id="text_8">
      <!-- $\mathdefault{4.00}$ -->
      <g transform="translate(29.64036 181.725939) scale(0.1 -0.1)">
       <use xlink:href="#CMR17-34" transform="scale(0.996264)"/>
       <use xlink:href="#CMMI12-3a" transform="translate(45.690477 0) scale(0.996264)"/>
       <use xlink:href="#CMR17-30" transform="translate(72.787654 0) scale(0.996264)"/>
       <use xlink:href="#CMR17-30" transform="translate(118.478131 0) scale(0.996264)"/>
      </g>
     </g>
    </g>
    <g id="ytick_4">
     <g id="line2d_17">
      <path d="M 54.351774 152.620518 
L 450 152.620518 
" clip-path="url(#p59045383d3)" style="fill: none; stroke-dasharray: 2.96,1.28; stroke-dashoffset: 0; stroke: #b0b0b0; stroke-opacity: 0.7; stroke-width: 0.8"/>
     </g>
     <g id="line2d_18">
      <g>
       <use xlink:href="#m9199af1cde" x="54.351774" y="152.620518" style="stroke: #000000; stroke-width: 0.8"/>
      </g>
     </g>
     <g id="text_9">
      <!-- $\mathdefault{4.05}$ -->
      <g transform="translate(29.64036 156.079768) scale(0.1 -0.1)">
       <use xlink:href="#CMR17-34" transform="scale(0.996264)"/>
       <use xlink:href="#CMMI12-3a" transform="translate(45.690477 0) scale(0.996264)"/>
       <use xlink:href="#CMR17-30" transform="translate(72.787654 0) scale(0.996264)"/>
       <use xlink:href="#CMR17-35" transform="translate(118.478131 0) scale(0.996264)"/>
      </g>
     </g>
    </g>
    <g id="ytick_5">
     <g id="line2d_19">
      <path d="M 54.351774 126.974348 
L 450 126.974348 
" clip-path="url(#p59045383d3)" style="fill: none; stroke-dasharray: 2.96,1.28; stroke-dashoffset: 0; stroke: #b0b0b0; stroke-opacity: 0.7; stroke-width: 0.8"/>
     </g>
     <g id="line2d_20">
      <g>
       <use xlink:href="#m9199af1cde" x="54.351774" y="126.974348" style="stroke: #000000; stroke-width: 0.8"/>
      </g>
     </g>
     <g id="text_10">
      <!-- $\mathdefault{4.10}$ -->
      <g transform="translate(29.64036 130.433597) scale(0.1 -0.1)">
       <use xlink:href="#CMR17-34" transform="scale(0.996264)"/>
       <use xlink:href="#CMMI12-3a" transform="translate(45.690477 0) scale(0.996264)"/>
       <use xlink:href="#CMR17-31" transform="translate(72.787654 0) scale(0.996264)"/>
       <use xlink:href="#CMR17-30" transform="translate(118.478131 0) scale(0.996264)"/>
      </g>
     </g>
    </g>
    <g id="ytick_6">
     <g id="line2d_21">
      <path d="M 54.351774 101.328177 
L 450 101.328177 
" clip-path="url(#p59045383d3)" style="fill: none; stroke-dasharray: 2.96,1.28; stroke-dashoffset: 0; stroke: #b0b0b0; stroke-opacity: 0.7; stroke-width: 0.8"/>
     </g>
     <g id="line2d_22">
      <g>
       <use xlink:href="#m9199af1cde" x="54.351774" y="101.328177" style="stroke: #000000; stroke-width: 0.8"/>
      </g>
     </g>
     <g id="text_11">
      <!-- $\mathdefault{4.15}$ -->
      <g transform="translate(29.64036 104.787426) scale(0.1 -0.1)">
       <use xlink:href="#CMR17-34" transform="scale(0.996264)"/>
       <use xlink:href="#CMMI12-3a" transform="translate(45.690477 0) scale(0.996264)"/>
       <use xlink:href="#CMR17-31" transform="translate(72.787654 0) scale(0.996264)"/>
       <use xlink:href="#CMR17-35" transform="translate(118.478131 0) scale(0.996264)"/>
      </g>
     </g>
    </g>
    <g id="ytick_7">
     <g id="line2d_23">
      <path d="M 54.351774 75.682006 
L 450 75.682006 
" clip-path="url(#p59045383d3)" style="fill: none; stroke-dasharray: 2.96,1.28; stroke-dashoffset: 0; stroke: #b0b0b0; stroke-opacity: 0.7; stroke-width: 0.8"/>
     </g>
     <g id="line2d_24">
      <g>
       <use xlink:href="#m9199af1cde" x="54.351774" y="75.682006" style="stroke: #000000; stroke-width: 0.8"/>
      </g>
     </g>
     <g id="text_12">
      <!-- $\mathdefault{4.20}$ -->
      <g transform="translate(29.64036 79.141255) scale(0.1 -0.1)">
       <use xlink:href="#CMR17-34" transform="scale(0.996264)"/>
       <use xlink:href="#CMMI12-3a" transform="translate(45.690477 0) scale(0.996264)"/>
       <use xlink:href="#CMR17-32" transform="translate(72.787654 0) scale(0.996264)"/>
       <use xlink:href="#CMR17-30" transform="translate(118.478131 0) scale(0.996264)"/>
      </g>
     </g>
    </g>
    <g id="ytick_8">
     <g id="line2d_25">
      <path d="M 54.351774 50.035835 
L 450 50.035835 
" clip-path="url(#p59045383d3)" style="fill: none; stroke-dasharray: 2.96,1.28; stroke-dashoffset: 0; stroke: #b0b0b0; stroke-opacity: 0.7; stroke-width: 0.8"/>
     </g>
     <g id="line2d_26">
      <g>
       <use xlink:href="#m9199af1cde" x="54.351774" y="50.035835" style="stroke: #000000; stroke-width: 0.8"/>
      </g>
     </g>
     <g id="text_13">
      <!-- $\mathdefault{4.25}$ -->
      <g transform="translate(29.64036 53.495084) scale(0.1 -0.1)">
       <use xlink:href="#CMR17-34" transform="scale(0.996264)"/>
       <use xlink:href="#CMMI12-3a" transform="translate(45.690477 0) scale(0.996264)"/>
       <use xlink:href="#CMR17-32" transform="translate(72.787654 0) scale(0.996264)"/>
       <use xlink:href="#CMR17-35" transform="translate(118.478131 0) scale(0.996264)"/>
      </g>
     </g>
    </g>
    <g id="text_14">
     <!-- \textbf{Zn}$^{2+}$ \textbf{in 10mL aliquots (mg)} -->
     <g transform="translate(22.153436 234.670921) rotate(-90) scale(0.14 -0.14)">
      <defs>
       <path id="CMBX12-5a" d="M 3942 4076 
C 3994 4153 3994 4185 3994 4230 
C 3994 4370 3942 4370 3808 4370 
L 570 4370 
L 499 2860 
L 768 2860 
C 819 3765 1306 4096 2138 4096 
L 3008 4096 
L 448 306 
C 397 229 397 203 397 146 
C 397 0 442 0 582 0 
L 3923 0 
L 4032 1777 
L 3763 1777 
C 3712 1031 3590 292 2317 292 
L 1382 292 
L 3942 4076 
z
" transform="scale(0.015625)"/>
       <path id="CMBX12-6e" d="M 3398 1924 
C 3398 2525 3136 2834 2432 2834 
C 1971 2834 1574 2615 1357 2143 
L 1350 2143 
L 1350 2816 
L 269 2816 
L 269 2517 
C 666 2517 710 2517 710 2270 
L 710 260 
L 269 260 
L 269 -13 
C 416 0 877 0 1056 0 
C 1235 0 1702 0 1850 -13 
L 1850 260 
L 1408 260 
L 1408 1607 
C 1408 2289 1920 2624 2330 2624 
C 2566 2624 2701 2473 2701 1993 
L 2701 260 
L 2259 260 
L 2259 -13 
C 2406 0 2867 0 3046 0 
C 3226 0 3693 0 3840 -13 
L 3840 260 
L 3398 260 
L 3398 1924 
z
" transform="scale(0.015625)"/>
       <path id="CMBX12-69" d="M 1427 3958 
C 1427 4219 1216 4416 966 4416 
C 704 4416 506 4200 506 3958 
C 506 3716 704 3500 966 3500 
C 1216 3500 1427 3697 1427 3958 
z
M 301 2816 
L 301 2517 
C 678 2517 723 2517 723 2270 
L 723 260 
L 282 260 
L 282 -13 
C 429 0 870 0 1043 0 
C 1222 0 1632 0 1786 -13 
L 1786 260 
L 1389 260 
L 1389 2816 
L 301 2816 
z
" transform="scale(0.015625)"/>
       <path id="CMBX12-31" d="M 2214 3975 
C 2214 4160 2202 4160 1997 4160 
C 1523 3776 813 3776 672 3776 
L 550 3776 
L 550 3503 
L 672 3503 
C 896 3503 1235 3541 1491 3624 
L 1491 267 
L 602 267 
L 602 0 
C 870 0 1542 0 1843 0 
C 2144 0 2822 0 3091 0 
L 3091 267 
L 2214 267 
L 2214 3975 
z
" transform="scale(0.015625)"/>
       <path id="CMBX12-30" d="M 3309 2038 
C 3309 2648 3309 4178 1798 4178 
C 282 4178 282 2654 282 2038 
C 282 1428 282 -64 1792 -64 
C 3302 -64 3309 1409 3309 2038 
z
M 1798 146 
C 1594 146 1440 228 1312 362 
C 1152 521 1050 621 1050 2114 
C 1050 2559 1050 2964 1101 3295 
C 1190 3924 1651 3968 1792 3968 
C 1997 3968 2394 3873 2483 3340 
C 2541 3015 2541 2501 2541 2114 
C 2541 615 2445 527 2253 336 
C 2125 209 1952 146 1798 146 
z
" transform="scale(0.015625)"/>
       <path id="CMBX12-6d" d="M 5402 1924 
C 5402 2506 5152 2834 4435 2834 
C 3789 2834 3488 2407 3386 2206 
C 3283 2740 2848 2834 2438 2834 
C 1824 2834 1491 2445 1357 2143 
L 1350 2143 
L 1350 2816 
L 269 2816 
L 269 2517 
C 666 2517 710 2517 710 2270 
L 710 260 
L 269 260 
L 269 -13 
C 416 0 877 0 1056 0 
C 1235 0 1702 0 1850 -13 
L 1850 260 
L 1408 260 
L 1408 1607 
C 1408 2296 1926 2624 2330 2624 
C 2566 2624 2707 2485 2707 1993 
L 2707 260 
L 2266 260 
L 2266 -13 
C 2413 0 2874 0 3053 0 
C 3232 0 3699 0 3846 -13 
L 3846 260 
L 3405 260 
L 3405 1607 
C 3405 2296 3923 2624 4326 2624 
C 4563 2624 4704 2485 4704 1993 
L 4704 260 
L 4262 260 
L 4262 -13 
C 4410 0 4870 0 5050 0 
C 5229 0 5696 0 5843 -13 
L 5843 260 
L 5402 260 
L 5402 1924 
z
" transform="scale(0.015625)"/>
       <path id="CMBX12-4c" d="M 4019 1716 
L 3750 1716 
C 3706 1277 3603 273 2451 273 
L 1766 273 
L 1766 4085 
L 2618 4085 
L 2618 4352 
C 2304 4352 1734 4352 1395 4352 
C 1158 4352 429 4352 243 4352 
L 243 4085 
L 922 4085 
L 922 273 
L 243 273 
L 243 0 
L 3834 0 
L 4019 1716 
z
" transform="scale(0.015625)"/>
       <path id="CMBX12-61" d="M 2944 1898 
C 2944 2484 2477 2879 1574 2879 
C 1216 2879 461 2879 461 2334 
C 461 2061 666 1945 838 1945 
C 1030 1945 1216 2079 1216 2323 
C 1216 2445 1171 2559 1062 2630 
C 1274 2688 1427 2688 1549 2688 
C 1984 2688 2246 2445 2246 1919 
L 2246 1663 
C 1235 1663 218 1382 218 676 
C 218 95 960 -32 1402 -32 
C 1894 -32 2208 233 2336 510 
C 2336 274 2336 0 2982 0 
L 3309 0 
C 3443 0 3494 0 3494 145 
C 3494 273 3437 273 3347 273 
C 2944 273 2944 374 2944 522 
L 2944 1898 
z
M 2246 882 
C 2246 291 1709 178 1504 178 
C 1190 178 928 390 928 686 
C 928 1273 1619 1472 2246 1472 
L 2246 882 
z
" transform="scale(0.015625)"/>
       <path id="CMBX12-6c" d="M 1389 4416 
L 282 4416 
L 282 4117 
C 678 4117 723 4117 723 3866 
L 723 260 
L 282 260 
L 282 -13 
C 429 0 883 0 1056 0 
C 1229 0 1683 0 1830 -13 
L 1830 260 
L 1389 260 
L 1389 4416 
z
" transform="scale(0.015625)"/>
       <path id="CMBX12-71" d="M 3328 2853 
L 3091 2853 
L 2752 2327 
C 2528 2651 2214 2853 1792 2853 
C 909 2853 243 2309 243 1410 
C 243 505 883 -32 1728 -32 
C 1971 -32 2298 19 2630 330 
L 2630 -955 
L 2189 -955 
L 2189 -1228 
C 2336 -1216 2797 -1216 2976 -1216 
C 3155 -1216 3622 -1216 3770 -1228 
L 3770 -955 
L 3328 -955 
L 3328 2853 
z
M 2662 759 
C 2394 259 2016 178 1805 178 
C 1395 178 1011 551 1011 1404 
C 1011 2327 1498 2624 1875 2624 
C 2374 2624 2662 2112 2662 1821 
L 2662 759 
z
" transform="scale(0.015625)"/>
       <path id="CMBX12-75" d="M 2259 2859 
L 2259 2560 
C 2656 2560 2701 2560 2701 2312 
L 2701 1056 
C 2701 569 2413 178 1914 178 
C 1434 178 1408 337 1408 684 
L 1408 2859 
L 269 2859 
L 269 2560 
C 666 2560 710 2560 710 2312 
L 710 794 
C 710 153 1139 -32 1824 -32 
C 1978 -32 2451 -32 2726 496 
L 2733 496 
L 2733 0 
L 3840 0 
L 3840 292 
C 3443 292 3398 292 3398 540 
L 3398 2859 
L 2259 2859 
z
" transform="scale(0.015625)"/>
       <path id="CMBX12-6f" d="M 3392 1395 
C 3392 2252 2803 2880 1798 2880 
C 755 2880 198 2220 198 1395 
C 198 565 787 -32 1792 -32 
C 2835 -32 3392 596 3392 1395 
z
M 1798 197 
C 966 197 966 939 966 1459 
C 966 1757 966 2074 1088 2303 
C 1229 2556 1517 2670 1792 2670 
C 2157 2670 2387 2499 2496 2322 
C 2624 2093 2624 1763 2624 1459 
C 2624 932 2624 197 1798 197 
z
" transform="scale(0.015625)"/>
       <path id="CMBX12-74" d="M 1350 2560 
L 2272 2560 
L 2272 2833 
L 1350 2833 
L 1350 4032 
L 1082 4032 
C 1075 3405 768 2776 134 2776 
L 134 2560 
L 653 2560 
L 653 789 
C 653 114 1178 -32 1638 -32 
C 2112 -32 2394 325 2394 795 
L 2394 1133 
L 2125 1133 
L 2125 802 
C 2125 381 1933 197 1734 197 
C 1350 197 1350 624 1350 770 
L 1350 2560 
z
" transform="scale(0.015625)"/>
       <path id="CMBX12-73" d="M 2413 2715 
C 2413 2836 2413 2880 2317 2880 
C 2278 2880 2266 2880 2170 2823 
C 2144 2804 2074 2759 2042 2740 
C 1862 2842 1626 2880 1395 2880 
C 1203 2880 243 2880 243 2056 
C 243 1389 1037 1250 1235 1218 
C 1408 1187 1619 1148 1645 1148 
C 1901 1091 2157 932 2157 666 
C 2157 178 1574 178 1440 178 
C 1114 178 710 279 531 896 
C 493 1023 486 1023 378 1023 
C 243 1023 243 1004 243 858 
L 243 132 
C 243 12 243 -32 339 -32 
C 384 -32 397 -32 525 70 
L 691 191 
C 979 -32 1325 -32 1440 -32 
C 1792 -32 2592 44 2592 888 
C 2592 1192 2426 1402 2298 1516 
C 2035 1731 1818 1770 1472 1833 
C 1062 1903 678 1973 678 2277 
C 678 2689 1248 2689 1382 2689 
C 2093 2689 2131 2245 2144 2087 
C 2150 2005 2202 2005 2278 2005 
C 2413 2005 2413 2024 2413 2170 
L 2413 2715 
z
" transform="scale(0.015625)"/>
       <path id="CMBX12-28" d="M 2394 -1524 
C 2394 -1498 2394 -1485 2272 -1371 
C 1555 -659 1280 461 1280 1580 
C 1280 2834 1594 3865 2310 4583 
C 2387 4659 2394 4666 2394 4691 
C 2394 4768 2317 4768 2285 4768 
C 2227 4768 2214 4768 2048 4634 
C 1126 3903 691 2732 691 1588 
C 691 417 1133 -722 2042 -1460 
C 2208 -1600 2221 -1600 2285 -1600 
C 2317 -1600 2394 -1600 2394 -1524 
z
" transform="scale(0.015625)"/>
       <path id="CMBX12-67" d="M 832 1189 
C 1139 1024 1498 1024 1594 1024 
C 2477 1024 2829 1514 2829 1960 
C 2829 2285 2643 2515 2566 2578 
C 2752 2676 2906 2700 3014 2713 
C 2995 2682 2976 2658 2976 2578 
C 2976 2450 3066 2334 3232 2334 
C 3398 2334 3488 2455 3488 2588 
C 3488 2741 3373 2944 3104 2944 
C 2829 2944 2566 2803 2432 2682 
C 2170 2834 1920 2891 1594 2891 
C 710 2891 358 2403 358 1957 
C 358 1760 422 1501 691 1285 
C 582 1161 467 933 467 699 
C 467 420 614 180 749 76 
C 595 39 198 -105 198 -461 
C 198 -830 614 -1248 1792 -1248 
C 2854 -1248 3392 -910 3392 -439 
C 3392 114 3021 295 2861 370 
C 2554 521 2144 521 1581 521 
C 1421 521 1139 521 1107 527 
C 832 575 755 829 755 957 
C 755 1010 762 1107 832 1189 
z
M 1594 1227 
C 1037 1227 1037 1665 1037 1957 
C 1037 2250 1037 2688 1594 2688 
C 2150 2688 2150 2250 2150 1957 
C 2150 1665 2150 1227 1594 1227 
z
M 1952 -64 
C 2419 -64 2867 -145 2867 -467 
C 2867 -685 2643 -1045 1798 -1045 
C 954 -1045 723 -697 723 -461 
C 723 -64 1126 -64 1222 -64 
L 1952 -64 
z
" transform="scale(0.015625)"/>
       <path id="CMBX12-29" d="M 2099 1581 
C 2099 2751 1658 3890 749 4628 
C 582 4768 570 4768 506 4768 
C 474 4768 397 4768 397 4692 
C 397 4667 397 4654 518 4540 
C 1235 3827 1510 2708 1510 1588 
C 1510 334 1197 -696 480 -1415 
C 403 -1492 397 -1498 397 -1524 
C 397 -1600 474 -1600 506 -1600 
C 563 -1600 576 -1600 742 -1466 
C 1664 -735 2099 436 2099 1581 
z
" transform="scale(0.015625)"/>
      </defs>
      <use xlink:href="#CMBX12-5a" transform="scale(0.996264)"/>
      <use xlink:href="#CMBX12-6e" transform="translate(68.493151 0) scale(0.996264)"/>
      <use xlink:href="#CMR17-32" transform="translate(130.759651 36.153639) scale(0.697382)"/>
      <use xlink:href="#CMR17-2b" transform="translate(162.742833 36.153639) scale(0.697382)"/>
      <use xlink:href="#CMBX12-69" transform="translate(243.517063 0) scale(0.996264)"/>
      <use xlink:href="#CMBX12-6e" transform="translate(274.650313 0) scale(0.996264)"/>
      <use xlink:href="#CMBX12-31" transform="translate(374.276714 0) scale(0.996264)"/>
      <use xlink:href="#CMBX12-30" transform="translate(430.316565 0) scale(0.996264)"/>
      <use xlink:href="#CMBX12-6d" transform="translate(486.356416 0) scale(0.996264)"/>
      <use xlink:href="#CMBX12-4c" transform="translate(579.756166 0) scale(0.996264)"/>
      <use xlink:href="#CMBX12-61" transform="translate(684.456162 0) scale(0.996264)"/>
      <use xlink:href="#CMBX12-6c" transform="translate(738.93935 0) scale(0.996264)"/>
      <use xlink:href="#CMBX12-69" transform="translate(770.072601 0) scale(0.996264)"/>
      <use xlink:href="#CMBX12-71" transform="translate(801.205851 0) scale(0.996264)"/>
      <use xlink:href="#CMBX12-75" transform="translate(860.359027 0) scale(0.996264)"/>
      <use xlink:href="#CMBX12-6f" transform="translate(922.625527 0) scale(0.996264)"/>
      <use xlink:href="#CMBX12-74" transform="translate(978.665378 0) scale(0.996264)"/>
      <use xlink:href="#CMBX12-73" transform="translate(1022.251928 0) scale(0.996264)"/>
      <use xlink:href="#CMBX12-28" transform="translate(1103.821166 0) scale(0.996264)"/>
      <use xlink:href="#CMBX12-6d" transform="translate(1147.407716 0) scale(0.996264)"/>
      <use xlink:href="#CMBX12-67" transform="translate(1240.807467 0) scale(0.996264)"/>
      <use xlink:href="#CMBX12-29" transform="translate(1296.847318 0) scale(0.996264)"/>
     </g>
    </g>
   </g>
   <g id="LineCollection_1">
    <path d="M 72.335784 132.103582 
L 72.335784 39.777366 
" clip-path="url(#p59045383d3)" style="fill: none; stroke: #ff0000; stroke-width: 1.5"/>
    <path d="M 162.255836 168.008221 
L 162.255836 137.232816 
" clip-path="url(#p59045383d3)" style="fill: none; stroke: #ff0000; stroke-width: 1.5"/>
    <path d="M 252.175887 239.8175 
L 252.175887 126.974348 
" clip-path="url(#p59045383d3)" style="fill: none; stroke: #ff0000; stroke-width: 1.5"/>
    <path d="M 342.095938 147.491284 
L 342.095938 85.940474 
" clip-path="url(#p59045383d3)" style="fill: none; stroke: #ff0000; stroke-width: 1.5"/>
    <path d="M 432.01599 88.505091 
L 432.01599 84.401704 
" clip-path="url(#p59045383d3)" style="fill: none; stroke: #ff0000; stroke-width: 1.5"/>
   </g>
   <g id="line2d_27">
    <defs>
     <path id="mf3f2f06270" d="M 5 0 
L -5 -0 
" style="stroke: #ff0000"/>
    </defs>
    <g clip-path="url(#p59045383d3)">
     <use xlink:href="#mf3f2f06270" x="72.335784" y="132.103582" style="fill: #ff0000; stroke: #ff0000"/>
     <use xlink:href="#mf3f2f06270" x="162.255836" y="168.008221" style="fill: #ff0000; stroke: #ff0000"/>
     <use xlink:href="#mf3f2f06270" x="252.175887" y="239.8175" style="fill: #ff0000; stroke: #ff0000"/>
     <use xlink:href="#mf3f2f06270" x="342.095938" y="147.491284" style="fill: #ff0000; stroke: #ff0000"/>
     <use xlink:href="#mf3f2f06270" x="432.01599" y="88.505091" style="fill: #ff0000; stroke: #ff0000"/>
    </g>
   </g>
   <g id="line2d_28">
    <g clip-path="url(#p59045383d3)">
     <use xlink:href="#mf3f2f06270" x="72.335784" y="39.777366" style="fill: #ff0000; stroke: #ff0000"/>
     <use xlink:href="#mf3f2f06270" x="162.255836" y="137.232816" style="fill: #ff0000; stroke: #ff0000"/>
     <use xlink:href="#mf3f2f06270" x="252.175887" y="126.974348" style="fill: #ff0000; stroke: #ff0000"/>
     <use xlink:href="#mf3f2f06270" x="342.095938" y="85.940474" style="fill: #ff0000; stroke: #ff0000"/>
     <use xlink:href="#mf3f2f06270" x="432.01599" y="84.401704" style="fill: #ff0000; stroke: #ff0000"/>
    </g>
   </g>
   <g id="line2d_29">
    <defs>
     <path id="mb8154f6851" d="M -3 3 
L 3 3 
L 3 -3 
L -3 -3 
z
" style="stroke: #0000ff; stroke-linejoin: miter"/>
    </defs>
    <g clip-path="url(#p59045383d3)">
     <use xlink:href="#mb8154f6851" x="72.335784" y="85.940474" style="fill: #0000ff; stroke: #0000ff; stroke-linejoin: miter"/>
     <use xlink:href="#mb8154f6851" x="162.255836" y="152.620518" style="fill: #0000ff; stroke: #0000ff; stroke-linejoin: miter"/>
     <use xlink:href="#mb8154f6851" x="252.175887" y="183.395924" style="fill: #0000ff; stroke: #0000ff; stroke-linejoin: miter"/>
     <use xlink:href="#mb8154f6851" x="342.095938" y="116.715879" style="fill: #0000ff; stroke: #0000ff; stroke-linejoin: miter"/>
     <use xlink:href="#mb8154f6851" x="432.01599" y="86.453397" style="fill: #0000ff; stroke: #0000ff; stroke-linejoin: miter"/>
    </g>
   </g>
   <g id="patch_3">
    <path d="M 54.351774 249.819506 
L 54.351774 29.77536 
" style="fill: none; stroke: #000000; stroke-width: 0.8; stroke-linejoin: miter; stroke-linecap: square"/>
   </g>
   <g id="patch_4">
    <path d="M 450 249.819506 
L 450 29.77536 
" style="fill: none; stroke: #000000; stroke-width: 0.8; stroke-linejoin: miter; stroke-linecap: square"/>
   </g>
   <g id="patch_5">
    <path d="M 54.351774 249.819506 
L 450 249.819506 
" style="fill: none; stroke: #000000; stroke-width: 0.8; stroke-linejoin: miter; stroke-linecap: square"/>
   </g>
   <g id="patch_6">
    <path d="M 54.351774 29.77536 
L 450 29.77536 
" style="fill: none; stroke: #000000; stroke-width: 0.8; stroke-linejoin: miter; stroke-linecap: square"/>
   </g>
   <g id="text_15">
    <!-- \textbf{Zn}$^{2+}$ \textbf{Removal Viability} -->
    <g transform="translate(161.134906 23.77536) scale(0.16 -0.16)">
     <defs>
      <path id="CMBX12-52" d="M 3386 2154 
C 4250 2383 4461 2839 4461 3183 
C 4461 3819 3789 4352 2605 4352 
L 243 4352 
L 243 4078 
L 922 4078 
L 922 267 
L 243 267 
L 243 0 
C 429 0 1094 0 1325 0 
C 1555 0 2227 0 2413 0 
L 2413 267 
L 1734 267 
L 1734 2094 
L 2496 2094 
C 2752 2094 2957 2017 3098 1849 
C 3290 1630 3290 1488 3290 1057 
C 3290 626 3290 363 3616 144 
C 3949 -82 4474 -82 4614 -82 
C 5267 -82 5344 494 5344 583 
C 5344 692 5293 711 5210 711 
C 5088 711 5082 667 5075 583 
C 5043 262 4845 128 4666 128 
C 4256 128 4211 554 4160 1137 
C 4122 1474 4077 1944 3386 2154 
z
M 2483 2304 
L 1734 2304 
L 1734 4078 
L 2496 4078 
C 3539 4078 3558 3564 3558 3194 
C 3558 2849 3552 2304 2483 2304 
z
" transform="scale(0.015625)"/>
      <path id="CMBX12-65" d="M 2893 1408 
C 3040 1408 3078 1408 3078 1567 
C 3078 1758 3034 2233 2739 2532 
C 2470 2798 2112 2880 1741 2880 
C 742 2880 198 2233 198 1434 
C 198 545 858 -32 1824 -32 
C 2790 -32 3078 640 3078 748 
C 3078 843 2982 843 2944 843 
C 2842 843 2835 824 2797 742 
C 2630 330 2208 197 1901 197 
C 973 197 966 1053 966 1408 
L 2893 1408 
z
M 966 1593 
C 979 1852 986 2100 1120 2328 
C 1242 2531 1466 2670 1741 2670 
C 2426 2670 2483 1909 2490 1593 
L 966 1593 
z
" transform="scale(0.015625)"/>
      <path id="CMBX12-76" d="M 3168 2402 
C 3213 2498 3238 2549 3642 2549 
L 3642 2816 
C 3411 2816 3398 2816 3136 2816 
C 2963 2816 2950 2816 2586 2816 
L 2586 2549 
C 2758 2549 2899 2517 2899 2472 
C 2899 2466 2899 2460 2867 2396 
L 2118 763 
L 1293 2549 
L 1645 2549 
L 1645 2822 
C 1498 2816 1050 2816 877 2816 
C 691 2816 320 2816 154 2822 
L 154 2549 
L 557 2549 
L 1683 121 
C 1741 0 1754 -32 1901 -32 
C 2003 -32 2054 -19 2112 108 
L 3168 2402 
z
" transform="scale(0.015625)"/>
      <path id="CMBX12-56" d="M 4634 3951 
C 4672 4033 4698 4096 5171 4096 
L 5280 4096 
L 5280 4363 
C 5082 4363 4621 4363 4570 4363 
C 4390 4363 3936 4363 3789 4370 
L 3789 4096 
C 3930 4096 4166 4096 4346 4026 
L 4314 3938 
L 3002 975 
L 1619 4096 
L 2214 4096 
L 2214 4363 
C 2010 4363 1395 4363 1152 4363 
C 947 4363 314 4363 154 4370 
L 154 4096 
L 730 4096 
L 2496 100 
C 2554 -26 2611 -32 2714 -32 
C 2816 -32 2880 -32 2938 100 
L 4634 3951 
z
" transform="scale(0.015625)"/>
      <path id="CMBX12-62" d="M 1331 4416 
L 224 4416 
L 224 4117 
C 621 4117 666 4117 666 3867 
L 666 0 
L 934 0 
C 1043 123 1152 247 1254 376 
C 1581 38 1933 -32 2189 -32 
C 3072 -32 3750 504 3750 1431 
C 3750 2305 3149 2880 2272 2880 
C 1894 2880 1594 2759 1331 2555 
L 1331 4416 
z
M 1363 2248 
C 1587 2555 1920 2670 2189 2670 
C 2982 2670 2982 1859 2982 1437 
C 2982 1149 2982 785 2829 548 
C 2630 241 2330 178 2125 178 
C 1690 178 1453 484 1363 625 
L 1363 2248 
z
" transform="scale(0.015625)"/>
      <path id="CMBX12-79" d="M 3168 2421 
C 3206 2509 3232 2560 3642 2560 
L 3642 2827 
C 3424 2827 3398 2827 3136 2827 
C 2963 2827 2950 2827 2586 2827 
L 2586 2560 
C 2592 2560 2893 2560 2893 2478 
C 2893 2459 2874 2421 2867 2402 
L 2118 805 
L 1299 2560 
L 1651 2560 
L 1651 2833 
C 1498 2827 1062 2827 883 2827 
C 698 2827 320 2827 154 2833 
L 154 2560 
L 563 2560 
L 1747 20 
C 1715 -56 1626 -240 1594 -316 
C 1459 -601 1254 -1038 806 -1038 
C 781 -1038 704 -1038 634 -1000 
C 646 -993 838 -917 838 -676 
C 838 -468 685 -335 493 -335 
C 294 -335 141 -469 141 -684 
C 141 -982 422 -1248 806 -1248 
C 1331 -1248 1677 -779 1805 -500 
L 3168 2421 
z
" transform="scale(0.015625)"/>
     </defs>
     <use xlink:href="#CMBX12-5a" transform="scale(0.996264)"/>
     <use xlink:href="#CMBX12-6e" transform="translate(68.493151 0) scale(0.996264)"/>
     <use xlink:href="#CMR17-32" transform="translate(130.759651 36.153639) scale(0.697382)"/>
     <use xlink:href="#CMR17-2b" transform="translate(162.742833 36.153639) scale(0.697382)"/>
     <use xlink:href="#CMBX12-52" transform="translate(243.517063 0) scale(0.996264)"/>
     <use xlink:href="#CMBX12-65" transform="translate(327.115738 0) scale(0.996264)"/>
     <use xlink:href="#CMBX12-6d" transform="translate(378.255006 0) scale(0.996264)"/>
     <use xlink:href="#CMBX12-6f" transform="translate(471.654757 0) scale(0.996264)"/>
     <use xlink:href="#CMBX12-76" transform="translate(524.581282 0) scale(0.996264)"/>
     <use xlink:href="#CMBX12-61" transform="translate(577.507808 0) scale(0.996264)"/>
     <use xlink:href="#CMBX12-6c" transform="translate(631.990996 0) scale(0.996264)"/>
     <use xlink:href="#CMBX12-56" transform="translate(700.484146 0) scale(0.996264)"/>
     <use xlink:href="#CMBX12-69" transform="translate(785.120541 0) scale(0.996264)"/>
     <use xlink:href="#CMBX12-61" transform="translate(816.253791 0) scale(0.996264)"/>
     <use xlink:href="#CMBX12-62" transform="translate(870.736979 0) scale(0.996264)"/>
     <use xlink:href="#CMBX12-69" transform="translate(933.00348 0) scale(0.996264)"/>
     <use xlink:href="#CMBX12-6c" transform="translate(964.13673 0) scale(0.996264)"/>
     <use xlink:href="#CMBX12-69" transform="translate(995.269981 0) scale(0.996264)"/>
     <use xlink:href="#CMBX12-74" transform="translate(1026.403231 0) scale(0.996264)"/>
     <use xlink:href="#CMBX12-79" transform="translate(1066.876456 0) scale(0.996264)"/>
    </g>
   </g>
  </g>
 </g>
 <defs>
  <clipPath id="p59045383d3">
   <rect x="54.351774" y="29.77536" width="395.648226" height="220.044147"/>
  </clipPath>
 </defs>
</svg>
